HIERARCHY
ROOT hip
{
OFFSET 1.74 105.83 2.62
CHANNELS 6 Xposition Yposition Zposition Zrotation Xrotation Yrotation
JOINT abdomen
{
OFFSET -0.25 7.23 0
CHANNELS 6 Xposition Yposition Zposition Zrotation Xrotation Yrotation
JOINT chest
{
OFFSET -0 16.55 -0
CHANNELS 6 Xposition Yposition Zposition Zrotation Xrotation Yrotation
JOINT neck
{
OFFSET 0 34.21 -0
CHANNELS 6 Xposition Yposition Zposition Zrotation Xrotation Yrotation
JOINT head
{
OFFSET 0 6.29 0
CHANNELS 6 Xposition Yposition Zposition Zrotation Xrotation Yrotation
End Site
{
OFFSET 0 0 0
}
}
}
JOINT lCollar
{
OFFSET 4.06 26.61 -1.12
CHANNELS 6 Xposition Yposition Zposition Zrotation Xrotation Yrotation
JOINT lShldr
{
OFFSET 14.17 0 0
CHANNELS 6 Xposition Yposition Zposition Zrotation Xrotation Yrotation
JOINT lForeArm
{
OFFSET 26.12 0 0
CHANNELS 6 Xposition Yposition Zposition Zrotation Xrotation Yrotation
JOINT lHand
{
OFFSET 27.71 0 0
CHANNELS 6 Xposition Yposition Zposition Zrotation Xrotation Yrotation
JOINT lThumb1
{
OFFSET 2.29 -0.46 1.83
CHANNELS 6 Xposition Yposition Zposition Zrotation Xrotation Yrotation
JOINT lThumb2
{
OFFSET 5.29 0 0
CHANNELS 6 Xposition Yposition Zposition Zrotation Xrotation Yrotation
JOINT lThumb3
{
OFFSET 3.01 0 0
CHANNELS 6 Xposition Yposition Zposition Zrotation Xrotation Yrotation
End Site
{
OFFSET 0 0 0
}
}
}
}
JOINT lIndex1
{
OFFSET 9.37 0.29 2.59
CHANNELS 6 Xposition Yposition Zposition Zrotation Xrotation Yrotation
JOINT lIndex2
{
OFFSET 4.34 0 0
CHANNELS 6 Xposition Yposition Zposition Zrotation Xrotation Yrotation
JOINT lIndex3
{
OFFSET 2.16 0 0
CHANNELS 6 Xposition Yposition Zposition Zrotation Xrotation Yrotation
End Site
{
OFFSET 0 0 0
}
}
}
}
JOINT lMid1
{
OFFSET 9.47 0.83 0.29
CHANNELS 6 Xposition Yposition Zposition Zrotation Xrotation Yrotation
JOINT lMid2
{
OFFSET 4.77 0 0
CHANNELS 6 Xposition Yposition Zposition Zrotation Xrotation Yrotation
JOINT lMid3
{
OFFSET 2.87 0 0
CHANNELS 6 Xposition Yposition Zposition Zrotation Xrotation Yrotation
End Site
{
OFFSET 0 0 0
}
}
}
}
JOINT lRing1
{
OFFSET 8.65 1.01 -1.70
CHANNELS 6 Xposition Yposition Zposition Zrotation Xrotation Yrotation
JOINT lRing2
{
OFFSET 4.54 0 0
CHANNELS 6 Xposition Yposition Zposition Zrotation Xrotation Yrotation
JOINT lRing3
{
OFFSET 2.50 0 0
CHANNELS 6 Xposition Yposition Zposition Zrotation Xrotation Yrotation
End Site
{
OFFSET 0 0 0
}
}
}
}
JOINT lPinky1
{
OFFSET 7.69 0.66 -3.90
CHANNELS 6 Xposition Yposition Zposition Zrotation Xrotation Yrotation
JOINT lPinky2
{
OFFSET 3.21 0 0
CHANNELS 6 Xposition Yposition Zposition Zrotation Xrotation Yrotation
JOINT lPinky3
{
OFFSET 1.92 0 0
CHANNELS 6 Xposition Yposition Zposition Zrotation Xrotation Yrotation
End Site
{
OFFSET 0 0 0
}
}
}
}
}
}
}
}
JOINT rCollar
{
OFFSET -4.06 26.61 -1.12
CHANNELS 6 Xposition Yposition Zposition Zrotation Xrotation Yrotation
JOINT rShldr
{
OFFSET -14.17 0 0
CHANNELS 6 Xposition Yposition Zposition Zrotation Xrotation Yrotation
JOINT rForeArm
{
OFFSET -26.12 0 0
CHANNELS 6 Xposition Yposition Zposition Zrotation Xrotation Yrotation
JOINT rHand
{
OFFSET -27.71 0 0
CHANNELS 6 Xposition Yposition Zposition Zrotation Xrotation Yrotation
JOINT rThumb1
{
OFFSET -2.29 -0.46 1.83
CHANNELS 6 Xposition Yposition Zposition Zrotation Xrotation Yrotation
JOINT rThumb2
{
OFFSET -5.29 0 0
CHANNELS 6 Xposition Yposition Zposition Zrotation Xrotation Yrotation
JOINT rThumb3
{
OFFSET -3.01 0 0
CHANNELS 6 Xposition Yposition Zposition Zrotation Xrotation Yrotation
End Site
{
OFFSET 0 0 0
}
}
}
}
JOINT rIndex1
{
OFFSET -9.37 0.29 2.59
CHANNELS 6 Xposition Yposition Zposition Zrotation Xrotation Yrotation
JOINT rIndex2
{
OFFSET -4.34 0 0
CHANNELS 6 Xposition Yposition Zposition Zrotation Xrotation Yrotation
JOINT rIndex3
{
OFFSET -2.16 0 0
CHANNELS 6 Xposition Yposition Zposition Zrotation Xrotation Yrotation
End Site
{
OFFSET 0 0 0
}
}
}
}
JOINT rMid1
{
OFFSET -9.47 0.83 0.29
CHANNELS 6 Xposition Yposition Zposition Zrotation Xrotation Yrotation
JOINT rMid2
{
OFFSET -4.77 0 0
CHANNELS 6 Xposition Yposition Zposition Zrotation Xrotation Yrotation
JOINT rMid3
{
OFFSET -2.87 0 0
CHANNELS 6 Xposition Yposition Zposition Zrotation Xrotation Yrotation
End Site
{
OFFSET 0 0 0
}
}
}
}
JOINT rRing1
{
OFFSET -8.65 1.01 -1.70
CHANNELS 6 Xposition Yposition Zposition Zrotation Xrotation Yrotation
JOINT rRing2
{
OFFSET -4.54 0 0
CHANNELS 6 Xposition Yposition Zposition Zrotation Xrotation Yrotation
JOINT rRing3
{
OFFSET -2.50 0 0
CHANNELS 6 Xposition Yposition Zposition Zrotation Xrotation Yrotation
End Site
{
OFFSET 0 0 0
}
}
}
}
JOINT rPinky1
{
OFFSET -7.69 0.66 -3.90
CHANNELS 6 Xposition Yposition Zposition Zrotation Xrotation Yrotation
JOINT rPinky2
{
OFFSET -3.21 0 0
CHANNELS 6 Xposition Yposition Zposition Zrotation Xrotation Yrotation
JOINT rPinky3
{
OFFSET -1.92 0 0
CHANNELS 6 Xposition Yposition Zposition Zrotation Xrotation Yrotation
End Site
{
OFFSET 0 0 0
}
}
}
}
}
}
}
}
}
}
JOINT lThigh
{
OFFSET 8.73 -0 0
CHANNELS 6 Xposition Yposition Zposition Zrotation Xrotation Yrotation
JOINT lShin
{
OFFSET 0 -46.66 0
CHANNELS 6 Xposition Yposition Zposition Zrotation Xrotation Yrotation
JOINT lFoot
{
OFFSET 0 -40.14 0
CHANNELS 6 Xposition Yposition Zposition Zrotation Xrotation Yrotation
JOINT lToes
{
OFFSET 0 -8.88 14.22
CHANNELS 6 Xposition Yposition Zposition Zrotation Xrotation Yrotation
End Site
{
OFFSET 0 0 0
}
}
}
}
}
JOINT rThigh
{
OFFSET -8.73 0 -0
CHANNELS 6 Xposition Yposition Zposition Zrotation Xrotation Yrotation
JOINT rShin
{
OFFSET 0 -46.66 0
CHANNELS 6 Xposition Yposition Zposition Zrotation Xrotation Yrotation
JOINT rFoot
{
OFFSET 0 -40.14 0
CHANNELS 6 Xposition Yposition Zposition Zrotation Xrotation Yrotation
JOINT rToes
{
OFFSET 0 -8.88 14.22
CHANNELS 6 Xposition Yposition Zposition Zrotation Xrotation Yrotation
End Site
{
OFFSET 0 0 0
}
}
}
}
}
}
MOTION
Frames: 6
Frame Time: 0.03
1.74 105.83 2.62 0.67 -4.63 33.20 -0.25 7.23 0 0.38 0.82 1.25 -0 16.55 -0 1.44 7.22 3.56 0 34.21 -0 0.02 0.58 0.02 0 6.29 0 -20.74 1.40 -19.92 4.06 26.61 -1.12 -19.45 -4.38 -1.30 14.17 0 0 -60 51.50 19.35 26.12 0 0 0 0 -50.90 27.71 0 0 -28.83 17.86 18.41 2.29 -0.46 1.83 57.19 34.31 -81.43 5.29 0 0 0 0 0 3.01 0 0 0 0 0 9.37 0.29 2.59 24.22 -1.62 -3.34 4.34 0 0 0 0 0 2.16 0 0 0 0 0 9.47 0.83 0.29 16.96 14.27 7.03 4.77 0 0 0 0 0 2.87 0 0 -0 0 0 8.65 1.01 -1.70 23.79 3.43 14.82 4.54 0 0 0 0 0 2.50 0 0 0 0 0 7.69 0.66 -3.90 21.17 -7.01 16.30 3.21 0 0 0 0 0 1.92 0 0 0 0 0 -4.06 26.61 -1.12 15.82 -4.57 0.60 -14.17 0 0 45.16 5.82 -4.18 -26.12 0 0 0 0 25.79 -27.71 0 0 27.67 -1.47 -51.39 -2.29 -0.46 1.83 -57.19 34.31 81.43 -5.29 0 0 0 0 0 -3.01 0 0 0 0 0 -9.37 0.29 2.59 -24.22 -1.62 3.34 -4.34 0 0 0 0 0 -2.16 0 0 -0 0 0 -9.47 0.83 0.29 -16.96 14.27 -7.03 -4.77 0 0 0 0 0 -2.87 0 0 0 0 0 -8.65 1.01 -1.70 -23.79 3.43 -14.82 -4.54 0 0 0 0 0 -2.50 0 0 -0 0 0 -7.69 0.66 -3.90 -21.17 -7.01 -16.30 -3.21 0 0 -0 0 0 -1.92 0 0 0 0 0 8.73 -0 0 0.15 9.89 2.01 0 -46.66 0 0 8.03 0 0 -40.14 0 -4.09 27.42 -0.36 0 -8.88 14.22 0 0 0 -8.73 0 -0 -11.28 2.10 -3.11 0 -46.66 0 0 4.56 0 0 -40.14 0 0.18 43.87 0.94 0 -8.88 14.22 0 0 0 
1.74 105.83 2.62 0.61 -4.68 33.22 -0.26 7.23 0 0.44 0.82 1.26 -0 16.55 -0 1.46 7.22 3.52 0 34.21 -0 0.01 0.58 0.01 0 6.29 0 -20.77 1.45 -19.64 4.06 26.61 -1.12 -19.10 -4.38 -1.27 14.17 0 0 -60.36 51.51 19.36 26.12 0 0 0 0 -50.90 27.71 0 0 -28.64 17.55 18.41 2.29 -0.46 1.83 57.19 34.31 -81.43 5.29 0 0 0 0 0 3.01 0 0 0 0 0 9.37 0.29 2.59 24.22 -1.62 -3.34 4.34 0 0 0 0 0 2.16 0 0 0 0 0 9.47 0.83 0.29 16.96 14.27 7.03 4.77 0 0 0 0 0 2.87 0 0 -0 0 0 8.65 1.01 -1.70 23.79 3.43 14.82 4.54 0 0 0 0 0 2.50 0 0 0 0 0 7.69 0.66 -3.90 21.17 -7.01 16.30 3.21 0 0 0 0 0 1.92 0 0 0 0 0 -4.06 26.61 -1.12 15.81 -4.57 0.57 -14.17 0 0 45.15 5.81 -4.20 -26.12 0 0 0 0 25.86 -27.71 0 0 27.51 -1.35 -51.26 -2.29 -0.46 1.83 -57.19 34.31 81.43 -5.29 0 0 0 0 0 -3.01 0 0 0 0 0 -9.37 0.29 2.59 -24.22 -1.62 3.34 -4.34 0 0 0 0 0 -2.16 0 0 -0 0 0 -9.47 0.83 0.29 -16.96 14.27 -7.03 -4.77 0 0 0 0 0 -2.87 0 0 0 0 0 -8.65 1.01 -1.70 -23.79 3.43 -14.82 -4.54 0 0 0 0 0 -2.50 0 0 -0 0 0 -7.69 0.66 -3.90 -21.17 -7.01 -16.30 -3.21 0 0 -0 0 0 -1.92 0 0 0 0 0 8.73 -0 0 0.21 9.86 1.80 0 -46.66 0 0 8.07 0 0 -40.14 0 -4.11 27.56 -0.36 0 -8.88 14.22 0 0 0 -8.73 0 -0 -11.21 2.13 -1.74 0 -46.66 0 0 4.61 0 0 -40.14 0 0.43 43.36 0.79 0 -8.88 14.22 0 0 0 
1.73 105.84 2.62 0.56 -4.72 33.24 -0.27 7.23 0 0.50 0.82 1.26 -0 16.55 -0 1.48 7.21 3.48 0 34.21 -0 0.01 0.57 0.01 0 6.29 0 -20.79 1.51 -19.28 4.06 26.61 -1.12 -18.75 -4.39 -1.24 14.17 0 0 -60.72 51.51 19.36 26.12 0 0 0 0 -50.90 27.71 0 0 -28.45 17.23 18.41 2.29 -0.46 1.83 57.19 34.31 -81.43 5.29 0 0 0 0 0 3.01 0 0 0 0 0 9.37 0.29 2.59 24.22 -1.62 -3.34 4.34 0 0 0 0 0 2.16 0 0 0 0 0 9.47 0.83 0.29 16.96 14.27 7.03 4.77 0 0 0 0 0 2.87 0 0 -0 0 0 8.65 1.01 -1.70 23.79 3.43 14.82 4.54 0 0 0 0 0 2.50 0 0 0 0 0 7.69 0.66 -3.90 21.17 -7.01 16.30 3.21 0 0 0 0 0 1.92 0 0 0 0 0 -4.06 26.61 -1.12 15.80 -4.58 0.54 -14.17 0 0 45.14 5.80 -4.21 -26.12 0 0 0 0 25.93 -27.71 0 0 27.35 -1.23 -51.13 -2.29 -0.46 1.83 -57.19 34.31 81.43 -5.29 0 0 0 0 0 -3.01 0 0 0 0 0 -9.37 0.29 2.59 -24.22 -1.62 3.34 -4.34 0 0 0 0 0 -2.16 0 0 -0 0 0 -9.47 0.83 0.29 -16.96 14.27 -7.03 -4.77 0 0 0 0 0 -2.87 0 0 0 0 0 -8.65 1.01 -1.70 -23.79 3.43 -14.82 -4.54 0 0 0 0 0 -2.50 0 0 -0 0 0 -7.69 0.66 -3.90 -21.17 -7.01 -16.30 -3.21 0 0 -0 0 0 -1.92 0 0 0 0 0 8.73 -0 0 0.27 9.83 1.56 0 -46.66 0 0 8.12 0 0 -40.14 0 -4.13 27.69 -0.37 0 -8.88 14.22 0 0 0 -8.73 0 -0 -11.14 2.17 -0.32 0 -46.66 0 0 4.67 0 0 -40.14 0 0.68 42.86 0.64 0 -8.88 14.22 0 0 0 
1.73 105.85 2.61 0.51 -4.77 33.25 -0.27 7.23 0 0.56 0.82 1.27 -0 16.55 -0 1.50 7.21 3.43 0 34.21 -0 0.01 0.57 0 0 6.29 0 -20.81 1.57 -18.95 4.06 26.61 -1.12 -18.76 -4.39 -1.24 14.17 0 0 -60.72 51.50 19.37 26.12 0 0 0 0 -50.90 27.71 0 0 -28.34 17.14 18.34 2.29 -0.46 1.83 57.19 34.31 -81.43 5.29 0 0 0 0 0 3.01 0 0 0 0 0 9.37 0.29 2.59 24.22 -1.62 -3.34 4.34 0 0 0 0 0 2.16 0 0 0 0 0 9.47 0.83 0.29 16.96 14.27 7.03 4.77 0 0 0 0 0 2.87 0 0 -0 0 0 8.65 1.01 -1.70 23.79 3.43 14.82 4.54 0 0 0 0 0 2.50 0 0 0 0 0 7.69 0.66 -3.90 21.17 -7.01 16.30 3.21 0 0 0 0 0 1.92 0 0 0 0 0 -4.06 26.61 -1.12 15.82 -4.59 0.53 -14.17 0 0 45.10 5.82 -4.24 -26.12 0 0 0 0 25.99 -27.71 0 0 27.25 -1.18 -51.04 -2.29 -0.46 1.83 -57.19 34.31 81.43 -5.29 0 0 0 0 0 -3.01 0 0 0 0 0 -9.37 0.29 2.59 -24.22 -1.62 3.34 -4.34 0 0 0 0 0 -2.16 0 0 -0 0 0 -9.47 0.83 0.29 -16.96 14.27 -7.03 -4.77 0 0 0 0 0 -2.87 0 0 0 0 0 -8.65 1.01 -1.70 -23.79 3.43 -14.82 -4.54 0 0 0 0 0 -2.50 0 0 -0 0 0 -7.69 0.66 -3.90 -21.17 -7.01 -16.30 -3.21 0 0 -0 0 0 -1.92 0 0 0 0 0 8.73 -0 0 0.33 9.79 1.32 0 -46.66 0 0 8.17 0 0 -40.14 0 -4.16 27.82 -0.37 0 -8.88 14.22 0 0 0 -8.73 0 -0 -11.07 2.20 1.09 0 -46.66 0 0 4.74 0 0 -40.14 0 0.92 42.37 0.49 0 -8.88 14.22 0 0 0 
1.72 105.86 2.61 0.45 -4.81 33.27 -0.28 7.23 0 0.62 0.82 1.27 -0 16.55 -0 1.52 7.20 3.38 0 34.21 -0 0 0.57 0 0 6.29 0 -20.84 1.61 -18.77 4.06 26.61 -1.12 -19.32 -4.37 -1.31 14.17 0 0 -60.19 51.47 19.40 26.12 0 0 0 0 -50.90 27.71 0 0 -28.28 17.43 18.04 2.29 -0.46 1.83 57.19 34.31 -81.43 5.29 0 0 0 0 0 3.01 0 0 0 0 0 9.37 0.29 2.59 24.22 -1.62 -3.34 4.34 0 0 0 0 0 2.16 0 0 0 0 0 9.47 0.83 0.29 16.96 14.27 7.03 4.77 0 0 0 0 0 2.87 0 0 -0 0 0 8.65 1.01 -1.70 23.79 3.43 14.82 4.54 0 0 0 0 0 2.50 0 0 0 0 0 7.69 0.66 -3.90 21.17 -7.01 16.30 3.21 0 0 0 0 0 1.92 0 0 0 0 0 -4.06 26.61 -1.12 15.92 -4.58 0.56 -14.17 0 0 44.98 5.89 -4.28 -26.12 0 0 0 0 26.05 -27.71 0 0 27.24 -1.28 -51.04 -2.29 -0.46 1.83 -57.19 34.31 81.43 -5.29 0 0 0 0 0 -3.01 0 0 0 0 0 -9.37 0.29 2.59 -24.22 -1.62 3.34 -4.34 0 0 0 0 0 -2.16 0 0 -0 0 0 -9.47 0.83 0.29 -16.96 14.27 -7.03 -4.77 0 0 0 0 0 -2.87 0 0 0 0 0 -8.65 1.01 -1.70 -23.79 3.43 -14.82 -4.54 0 0 0 0 0 -2.50 0 0 -0 0 0 -7.69 0.66 -3.90 -21.17 -7.01 -16.30 -3.21 0 0 -0 0 0 -1.92 0 0 0 0 0 8.73 -0 0 0.39 9.76 1.09 0 -46.66 0 0 8.22 0 0 -40.14 0 -4.18 27.95 -0.38 0 -8.88 14.22 0 0 0 -8.73 0 -0 -11.00 2.23 2.46 0 -46.66 0 0 4.79 0 0 -40.14 0 1.14 41.85 0.35 0 -8.88 14.22 0 0 0 
1.72 105.87 2.61 0.40 -4.85 33.29 -0.29 7.23 0 0.68 0.82 1.28 -0 16.55 -0 1.55 7.20 3.34 0 34.21 -0 0 0.56 0 0 6.29 0 -20.86 1.64 -18.83 4.06 26.61 -1.12 -20.17 -4.34 -1.41 14.17 0 0 -59.37 51.43 19.43 26.12 0 0 0 0 -50.91 27.71 0 0 -28.25 17.93 17.60 2.29 -0.46 1.83 57.19 34.31 -81.43 5.29 0 0 0 0 0 3.01 0 0 0 0 0 9.37 0.29 2.59 24.22 -1.62 -3.34 4.34 0 0 0 0 0 2.16 0 0 0 0 0 9.47 0.83 0.29 16.96 14.27 7.03 4.77 0 0 0 0 0 2.87 0 0 -0 0 0 8.65 1.01 -1.70 23.79 3.43 14.82 4.54 0 0 0 0 0 2.50 0 0 0 0 0 7.69 0.66 -3.90 21.17 -7.01 16.30 3.21 0 0 0 0 0 1.92 0 0 0 0 0 -4.06 26.61 -1.12 16.05 -4.56 0.62 -14.17 0 0 44.82 5.99 -4.33 -26.12 0 0 0 0 26.09 -27.71 0 0 27.29 -1.45 -51.08 -2.29 -0.46 1.83 -57.19 34.31 81.43 -5.29 0 0 0 0 0 -3.01 0 0 0 0 0 -9.37 0.29 2.59 -24.22 -1.62 3.34 -4.34 0 0 0 0 0 -2.16 0 0 -0 0 0 -9.47 0.83 0.29 -16.96 14.27 -7.03 -4.77 0 0 0 0 0 -2.87 0 0 0 0 0 -8.65 1.01 -1.70 -23.79 3.43 -14.82 -4.54 0 0 0 0 0 -2.50 0 0 -0 0 0 -7.69 0.66 -3.90 -21.17 -7.01 -16.30 -3.21 0 0 -0 0 0 -1.92 0 0 0 0 0 8.73 -0 0 0.45 9.73 0.89 0 -46.66 0 0 8.26 0 0 -40.14 0 -4.20 28.08 -0.39 0 -8.88 14.22 0 0 0 -8.73 0 -0 -10.93 2.27 3.73 0 -46.66 0 0 4.83 0 0 -40.14 0 1.32 41.27 0.23 0 -8.88 14.22 0 0 0 
